<?xml version="1.0" ?><svg xmlns="http://www.w3.org/2000/svg" xmlns:xlink="http://www.w3.org/1999/xlink" version="1.1" viewBox="0 0 512 512" style="enable-background:new 0 0 512 512;" xml:space="preserve"><g id="_x32_6_x2C__Pie_x2C__Cake_x2C__Food_and_Restaurant_x2C__Dessert_x2C__Bakery"><g><path style="fill:#FAF0AF;" d="M283.79,112.29l-55.58-0.01c-76.65,8.69-140.19,60.74-165.46,131.01    c127.955,34.004,256.751,35.444,386.5,0C423.97,173.01,360.45,120.98,283.79,112.29z"/><path style="fill:#F2D137;" d="M470.39,278.5c-149.944-23.043-293.048-23.624-428.78,0c11.143,92.929,7.823,65.237,8.46,70.55    C56.33,395.96,96.35,431,143.68,431l115.82,18.5L368.32,431c47.33,0,87.35-35.04,93.61-81.95    C462.567,343.737,459.246,371.429,470.39,278.5z"/><circle style="fill:#DD5113;" cx="256" cy="101" r="30"/><path style="fill:#EBAE37;" d="M501,255.76c0,8.95-6.11,16.74-14.81,18.87c-2.668,0.653,9.652-2.362-26.03,6.37    c-26.82,6.57-54.84,6.57-81.66,0c-2.896-0.526-18.442-4.93-40.84-4.93c-13.71,0-27.42,1.65-40.83,4.93    c-26.874,6.573-54.776,6.573-81.67,0c-26.87-6.572-54.786-6.573-81.66,0c-26.83,6.57-54.84,6.57-81.67,0    c-35.672-8.729-23.359-5.716-26.03-6.37c-8.683-2.141-14.8-9.91-14.8-18.87c0-12.6,11.81-21.87,24.05-18.87    c14.628,3.505,19.078,4.892,27.7,6.4c22.72,4.039,46.769,3.571,70.75-2.29c26.87-6.572,54.786-6.573,81.66,0    c26.875,6.569,54.777,6.578,81.67,0c26.82-6.57,54.84-6.57,81.66,0c3.701,0.464,37.077,10.84,81.67,0l16.79-4.11    c1.57-0.38,3.13-0.57,4.66-0.57C492.02,236.32,501,244.78,501,255.76z"/><path style="fill:#95C7EE;" d="M501,431c0,27.599-22.399,50-50,50H61c-27.61,0-50-22.39-50-50C36.291,431,475.369,431,501,431z"/><g><g><path d="M256.606,211c5.522,0,10-4.478,10-10v-30c0-5.522-4.478-10-10-10s-10,4.478-10,10v30      C246.606,206.522,251.084,211,256.606,211z"/><path d="M313.929,203.678c3.906,3.904,10.235,3.906,14.143,0c3.905-3.905,3.905-10.237,0-14.143l-21.213-21.213      c-3.906-3.904-10.236-3.904-14.143,0c-3.905,3.905-3.905,10.237,0,14.143L313.929,203.678z"/><path d="M198.071,203.678l21.213-21.213c3.905-3.905,3.905-10.237,0-14.143c-3.906-3.904-10.236-3.904-14.143,0l-21.213,21.213      c-3.905,3.905-3.905,10.237,0,14.143C187.835,207.582,194.164,207.583,198.071,203.678z"/><path d="M501,421h-71.225c22.402-16.321,38.167-41.406,42.064-70.632l8.537-64.022l8.198-2.007      C501.777,281.104,511,269.352,511,255.757c0-19.104-17.901-33.118-36.425-28.581c-12.809,3.119-14.416,3.564-19.03,4.624      c-27.143-66.624-87.296-115.805-159.661-127.907c1.394-19.408-11.187-36.171-28.681-41.284C270.843,50.139,282.371,41,296,41      c5.522,0,10-4.478,10-10s-4.478-10-10-10c-24.524,0-44.965,17.751-49.187,41.077c-18.675,4.408-32.131,21.81-30.698,41.807      c-72.353,12.104-132.521,61.296-159.66,127.917c-4.309-0.989-6.79-1.643-19.029-4.624C18.9,222.639,1,236.652,1,255.758      c0,13.594,9.222,25.347,22.426,28.581l8.199,2.008l8.536,64.021c3.902,29.265,19.681,54.327,42.068,70.632H11      c-5.522,0-10,4.478-10,10c0,33.084,26.916,60,60,60h390c33.084,0,60-26.916,60-60C511,425.478,506.522,421,501,421z M256,81      c11.028,0,20,8.972,20,20s-8.972,20-20,20s-20-8.972-20-20S244.972,81,256,81z M222.678,123.095      C229.851,133.877,242.107,141,256,141c13.889,0,26.143-7.119,33.317-17.897c64.266,9.654,119.928,52.556,145.917,112.012      c-18.161,1.783-36.615,0.517-54.355-3.827c-29.167-7.04-58.637-6.807-86.433-0.001c-25.156,6.16-51.75,6.16-76.906,0      c-28.267-6.924-58.15-6.924-86.423,0c-17.739,4.344-36.191,5.61-54.352,3.828C102.751,175.658,158.41,132.752,222.678,123.095z       M21,255.758c0-6.119,5.73-10.605,11.668-9.155c18.128,4.326,54.177,16.119,103.208,4.11c25.156-6.16,51.75-6.16,76.906,0      c28.27,6.923,58.152,6.924,86.426-0.001c25.155-6.16,51.75-6.159,76.903,0c46.58,11.645,81.261,1.267,103.221-4.11      c5.946-1.454,11.668,3.047,11.668,9.155c0,4.355-2.954,8.12-7.184,9.156l-26.036,6.375c-25.154,6.16-51.747,6.16-76.901,0      c-29.144-7.035-58.614-6.813-86.433-0.001c-25.156,6.16-51.75,6.16-76.906,0c-28.267-6.924-58.15-6.924-86.423,0      c-25.156,6.16-51.75,6.16-76.906,0l-26.027-6.374C23.954,263.877,21,260.112,21,255.758z M59.985,347.726l-7.51-56.321      c27.372,6.204,56.135,5.986,83.4-0.692c25.156-6.16,51.75-6.16,76.906,0c28.27,6.924,58.152,6.923,86.426-0.001      c25.155-6.159,51.75-6.159,76.903,0c25.662,6.416,54.958,7.133,83.414,0.689l-7.51,56.325      C446.445,389.499,410.465,421,368.322,421H143.678C101.535,421,65.555,389.499,59.985,347.726z M451,471H61      c-18.604,0-34.283-12.767-38.734-30h121.412h224.645h121.412C485.283,458.233,469.604,471,451,471z"/></g></g></g></g><g id="Layer_1"/></svg>